<svg xmlns="http://www.w3.org/2000/svg" width="566" height="142" fill="none"><path d="M269.392.445L266 3.837 262.608.445a1.536 1.536 0 00-2.163 0 1.537 1.537 0 000 2.163L263.837 6l-3.392 3.392a1.537 1.537 0 000 2.163 1.536 1.536 0 002.163 0L266 8.163l3.392 3.392a1.536 1.536 0 002.163 0 1.537 1.537 0 000-2.163L268.163 6l3.392-3.392a1.537 1.537 0 000-2.163 1.536 1.536 0 00-2.163 0zm19 0L285 3.837 281.608.445a1.536 1.536 0 00-2.163 0 1.537 1.537 0 000 2.163L282.837 6l-3.392 3.392a1.537 1.537 0 000 2.163 1.536 1.536 0 002.163 0L285 8.163l3.392 3.392a1.536 1.536 0 002.163 0 1.537 1.537 0 000-2.163L287.163 6l3.392-3.392a1.537 1.537 0 000-2.163 1.536 1.536 0 00-2.163 0zm19 0L304 3.837 300.608.445a1.536 1.536 0 00-2.163 0 1.537 1.537 0 000 2.163L301.837 6l-3.392 3.392a1.537 1.537 0 000 2.163 1.536 1.536 0 002.163 0L304 8.163l3.392 3.392a1.536 1.536 0 002.163 0 1.537 1.537 0 000-2.163L306.163 6l3.392-3.392a1.537 1.537 0 000-2.163 1.536 1.536 0 00-2.163 0zM54 48.5l-54 54V142h620V6H376.5L331 48.5H54z" fill="#F2E437"/></svg>