<svg xmlns="http://www.w3.org/2000/svg" width="824" height="39" fill="none"><path d="M9.402 0L-28 38.832h13.061L22.463 0H9.402zm414.264 0l-37.402 38.832h13.061L436.727 0h-13.061zM216.253 0l-36.532 38.832h12.757L229.01 0h-12.757zm414.263 0l-36.532 38.832h12.758L643.274 0h-12.758zM112.979 0L76.447 38.832h12.757L125.737 0h-12.758zm414.264 0l-36.532 38.832h12.757L540 0h-12.757zm-207.72 0l-36.532 38.832h12.757L332.281 0h-12.758zm414.266 0l-36.532 38.832h12.757L746.546 0h-12.757zM61.342 0L24.81 38.832h12.757L74.099 0H61.342zm414.263 0l-36.532 38.832h12.757L488.363 0h-12.758zM267.886 0l-36.532 38.832h12.757L280.643 0h-12.757zm414.265 0l-36.532 38.832h12.757L694.908 0h-12.757zM164.614 0l-36.532 38.832h12.757L177.371 0h-12.757zm414.265 0l-36.532 38.832h12.757L591.636 0h-12.757zM371.163 0l-36.532 38.832h12.757L383.92 0h-12.757zm414.264 0l-36.532 38.832h12.757L798.184 0h-12.757zM35.526 0L-1.006 38.832h12.757L48.283 0H35.526zm414.262 0l-36.532 38.832h12.757L462.545 0h-12.757zM242.072 0L205.54 38.832h12.757L254.829 0h-12.757zm414.26 0L619.8 38.832h12.757L669.089 0h-12.757zM138.795 0l-36.532 38.832h12.757L151.552 0h-12.757zm414.268 0l-36.532 38.832h12.757L565.821 0h-12.758zm-207.72 0l-36.532 38.832h12.757L358.1 0h-12.757zm414.264 0l-36.532 38.832h12.757L772.364 0h-12.757zM87.161 0L50.629 38.832h12.757L99.918 0H87.161zm414.265 0l-36.532 38.832h12.757L514.183 0h-12.757zM293.705 0l-36.532 38.832h12.757L306.462 0h-12.757zM707.97 0l-36.532 38.832h12.757L720.727 0H707.97zM190.432 0L153.9 38.832h12.758L203.19 0h-12.758zm414.266 0l-36.532 38.832h12.757L617.455 0h-12.757zm-207.72 0l-36.532 38.832h12.758L409.736 0h-12.758zm414.264 0L774.71 38.832h12.757L823.999 0h-12.757z" fill="#F2E437"/></svg>